<svg xmlns="http://www.w3.org/2000/svg" width="560" height="415.729" viewBox="0 0 560 415.729">
  <g id="group" transform="translate(-115 -192.631)">
    <path id="Path" d="M27.879,18.679C18.919,16.875,7.408,15.2,1.991,6.893A10.529,10.529,0,0,1,.046,2.951,2.8,2.8,0,0,1,0,2.453C-.087-.328,3.241-.151,5.375.183c5.1.782,10.1,1.892,15.123,3.084,1.49.347,2.968.706,4.42,1.066a61.67,61.67,0,0,0,2.961,14.347Z" transform="translate(252.2 374.319)" fill="#29d592"/>
    <path id="Path-2" data-name="Path" d="M27.492,0V4.711a8.834,8.834,0,0,1-8.84,8.829H0V0Z" transform="translate(378.847 537.317)" fill="#29d592"/>
    <path id="Path-3" data-name="Path" d="M41,6.7v6.741H8.8l.044.076A8.834,8.834,0,0,1,0,4.692V0H34.261A6.771,6.771,0,0,1,41,6.7Z" transform="translate(337.849 507.375)" fill="#29d592"/>
    <path id="Path-4" data-name="Path" d="M67.871,4.5,53.456,29.444l-5.317,9.2-33.68,58.27A7.746,7.746,0,0,1,1.041,89.17L35.233,30.005l9.655-16.693L52.584,0Z" transform="translate(259.572 427.557)" fill="#29d592"/>
    <path id="Path-5" data-name="Path" d="M132.366,7.752a7.686,7.686,0,0,1-1.042,3.866l-2.317,4.036c-5.834.921-11.9,2.6-4.7,8.141L113.676,42.184l-.871,1.5L95.32,73.955l-33.9,58.591A7.752,7.752,0,0,1,47.995,124.8l34.324-59.38L94.9,43.685H0L11.492,22.03h95.926l10.5-18.156a7.749,7.749,0,0,1,14.46,3.878Z" transform="translate(436.231 391.925)" fill="#29d592"/>
    <path id="Path-6" data-name="Path" d="M295.9,136.49c-4.01,10.8-12.142,10.847-12.275,10.847A383.4,383.4,0,0,1,237.961,133.5c-40.462-15.312-62.511-33.423-74.508-48.419a7.237,7.237,0,0,1,.631-.435l-.726.3a.989.989,0,0,0,.107.132c-11.593,7.971-17.907,20-21.33,31.1a16.317,16.317,0,0,1-.739,2.018.767.767,0,0,1-.044.107l-.707,1.488a.088.088,0,0,1-.032.057c-2.166,4.156-8.688,9.718-12.843,11.692l-75.916-.561-31.388-6.073c-4.982-1.192-10.033-2.3-15.085-3.084-2.141-.334-5.468-.511-5.38,2.27,0-3.626,1.894-6.1,4.079-8.74q3.5-4.238,7.021-8.463c13.115-15.633,25.889-31.531,39.06-47.108,3.239-3.841,6.542-7.6,10.065-11.162a169.907,169.907,0,0,1,42.224-31.632C130.013,2.7,150.824-1.686,167.488.552l.543.076c37.886,5.4,54.233,45.121,79.983,79.534C254.189,88.4,264.885,96,275.348,102.1l22.1,11.105a.472.472,0,0,0,0,.132c.695,9.983.284,18.181-1.547,23.157Z" transform="translate(252.232 252.674)" fill="#29d592"/>
    <path id="Path-7" data-name="Path" d="M4.351,31.992A24.314,24.314,0,0,1,2.545,34a.278.278,0,0,1-.107.1c-1.1,1.116-.808.662-2.134,1.627a.114.114,0,0,1-.063.057h0a1.048,1.048,0,0,1-.24.2,61.731,61.731,0,0,0,4.42-8.312c2.2-3.941,3.934-8.381,1.509-9.674C1.819,15.81,1.68,7.675,2.993,3.191V3.159a9.578,9.578,0,0,1,.556-1.488V1.614A6.616,6.616,0,0,0,4.073,0c7.6,10.531,7.432,23.239.278,31.992Z" transform="translate(508.473 253.51)" fill="#29d592"/>
    <path id="Path-8" data-name="Path" d="M40.607,14.252v.057c-.164.511-.347,1.009-.556,1.488v.032a15.683,15.683,0,0,1-9.415,8.621c-.152.057-.316.1-.48.151a12.985,12.985,0,0,1-3.555.435,11.756,11.756,0,0,1-1.49-.107,12.517,12.517,0,0,1-6.119-2.522,9.612,9.612,0,0,1-1.1-1,2.524,2.524,0,0,1-.284-.3c-1.446-1.6-2.639-3.746-4.761-4.168a5.993,5.993,0,0,0-4.262,1.261C4.167,21.17,1.452,25.881.17,31.02-.821,20.375,2.443,9.92,11.9,3.9a26.11,26.11,0,0,1,9-3.525L27.94,0a25.647,25.647,0,0,1,3.511.53c3.587.795,7.154,2.522,9.307,5.461a10.79,10.79,0,0,1,.511,2.888v.252a14.437,14.437,0,0,1-.663,5.121Z" transform="translate(471.421 240.879)" fill="#29d592"/>
    <path id="Path-9" data-name="Path" d="M91.494,39.243c-.631-.044-1.263-.076-1.837-.076-.152-1.968-2.008.095-3.738-1.425,2.052-5.013-2.86-9.207-5.809-10.771-5.86-3.1-12.774-5.442-19.492-4.723-8.524.933-12.18,7.624-17.617,13.243-6.1,6.306-15.622,8.028-24.4,7.637-5.544-.252-11.366-1.337-15.59-4.931-.436-.372-.84-.769-1.263-1.173A18.754,18.754,0,0,1,0,29.4,24.1,24.1,0,0,1,4.609,15.318,34.3,34.3,0,0,1,20.168,3.424,52.55,52.55,0,0,1,39.622.006,69.57,69.57,0,0,1,78.771,11.988a47.1,47.1,0,0,1,10.286,9.674.061.061,0,0,0,.044.057c3.176,5.587,4.546,11.736,2.393,17.525Z" transform="translate(406.365 198.64)" fill="#29d592"/>
    <path id="Path-10" data-name="Path" d="M8.505,16.037,0,0" transform="translate(331.238 491.275)" fill="none" stroke="#404040" stroke-width="3"/>
    <path id="Path-11" data-name="Path" d="M.739.152C.53.284.322.436.107.587A.99.99,0,0,1,0,.455Z" transform="translate(415.552 337.169)" fill="none" stroke="#404040" stroke-width="3"/>
    <path id="Path-12" data-name="Path" d="M15.287,4.5A86.311,86.311,0,0,1,0,0Z" transform="translate(312.156 427.563)" fill="none" stroke="#404040" stroke-width="3"/>
    <path id="Path-13" data-name="Path" d="M25.453.431V.507H.044L0,.431Z" transform="translate(346.625 520.338)" fill="none" stroke="#404040" stroke-width="3"/>
    <path id="Path-14" data-name="Path" d="M0,0H0Z" transform="translate(378.854 520.769)" fill="none" stroke="#404040" stroke-width="3"/>
    <path id="Path-15" data-name="Path" d="M.739.152C.53.284.322.436.107.587A.99.99,0,0,1,0,.455Z" transform="translate(415.552 337.169)" fill="none" stroke="#404040" stroke-width="3"/>
    <path id="Path-16" data-name="Path" d="M0,.49H560" transform="translate(115 590.752)" fill="none" stroke="#404040" stroke-miterlimit="10" stroke-width="3"/>
    <path id="Path-17" data-name="Path" d="M62.524,0H96.11a26.108,26.108,0,0,1,23.1,38.336L75.424,120.821H0L31.931,65.553" transform="translate(332.065 369.936)" fill="none" stroke="#404040" stroke-miterlimit="10" stroke-width="3"/>
    <path id="Path-18" data-name="Path" d="M26.552,0l16.96,30.005H0" transform="translate(379.378 490.764)" fill="none" stroke="#404040" stroke-miterlimit="10" stroke-width="3"/>
    <path id="Path-19" data-name="Path" d="M20.528,38.638,0,0" transform="translate(284.455 402.237)" fill="none" stroke="#404040" stroke-miterlimit="10" stroke-width="3"/>
    <path id="Path-20" data-name="Path" d="M18.21,34.274,0,0" transform="translate(313.551 457)" fill="none" stroke="#404040" stroke-miterlimit="10" stroke-width="3"/>
    <path id="Path-21" data-name="Path" d="M0,0S3.157,60.66,134.538,92.254c0,0,16.8.473,13.26-34.117" transform="translate(401.844 307.763)" fill="none" stroke="#404040" stroke-miterlimit="10" stroke-width="3"/>
    <path id="Path-22" data-name="Path" d="M121.644,56.958H101.054c-45.677,0-80.28-3.153-95.345-35.6a62.385,62.385,0,0,1-2.772-7.013A61.67,61.67,0,0,1,0,0" transform="translate(277.693 378.652)" fill="none" stroke="#404040" stroke-miterlimit="10" stroke-width="3"/>
    <path id="Path-23" data-name="Path" d="M73.3,0,64.26,16.548H0L5.152,7.839,9.49.511,9.793,0Z" transform="translate(322.271 490.764)" fill="#404040" stroke="#404040" stroke-miterlimit="10" stroke-width="3"/>
    <path id="Path-24" data-name="Path" d="M25.453.431V.507H.051L0,.431Z" transform="translate(347.15 520.338)" fill="none" stroke="#404040" stroke-miterlimit="10" stroke-width="3"/>
    <path id="Path-25" data-name="Path" d="M25.453,0V.076H18.665V16.548H9.036L.051.076,0,0Z" transform="translate(347.15 520.769)" fill="#404040" stroke="#404040" stroke-miterlimit="10" stroke-width="3"/>
    <path id="Path-26" data-name="Path" d="M41.068,16.548H0V0H31.281Z" transform="translate(379.378 520.769)" fill="#404040" stroke="#404040" stroke-miterlimit="10" stroke-width="3"/>
    <path id="Path-27" data-name="Path" d="M27.486,0V4.711a8.834,8.834,0,0,1-8.84,8.829H0V0Z" transform="translate(379.378 537.317)" fill="none" stroke="#404040" stroke-miterlimit="10" stroke-width="3"/>
    <path id="Path-28" data-name="Path" d="M6.794,0a6.765,6.765,0,0,1,6.775,6.767V43.582H6.782A6.777,6.777,0,0,1,0,36.816V13.533H6.794" transform="translate(365.808 507.312)" fill="none" stroke="#404040" stroke-miterlimit="10" stroke-width="3"/>
    <path id="Path-29" data-name="Path" d="M34.261,0H0V4.692a8.834,8.834,0,0,0,8.84,8.829l-.051-.076,32.2.063" transform="translate(338.341 507.312)" fill="none" stroke="#404040" stroke-miterlimit="10" stroke-width="3"/>
    <path id="Path-30" data-name="Path" d="M22.731.5l1.5.006H0V.431Z" transform="translate(365.815 520.338)" fill="none" stroke="#404040" stroke-miterlimit="10" stroke-width="3"/>
    <path id="Path-31" data-name="Path" d="M132.29,6.666A7.649,7.649,0,0,0,128.5,1.041a7.753,7.753,0,0,0-10.589,2.825L107.418,22.022H11.511L0,43.677H94.9L48,124.782a7.752,7.752,0,0,0,13.43,7.744L112.8,43.665l.871-1.5L123.7,24.822" transform="translate(436.755 391.945)" fill="none" stroke="#404040" stroke-miterlimit="10" stroke-width="3"/>
    <path id="Path-32" data-name="Path" d="M67.876,4.5,48.144,38.645,14.457,96.914A7.746,7.746,0,0,1,1.04,89.17l34.2-59.165L52.589,0" transform="translate(260.091 427.557)" fill="none" stroke="#404040" stroke-miterlimit="10" stroke-width="3"/>
    <path id="Path-33" data-name="Path" d="M121.922,87.034c-10.968,37.175-46.435,59.5-79.2,49.857S-7.723,89.285,3.258,52.122,49.687-7.409,82.458,2.246a56.361,56.361,0,0,1,8.354,3.216l-34.2,59.159a7.746,7.746,0,0,0,13.418,7.744L103.718,14.1a64.343,64.343,0,0,1,19.189,32.4l-5.152,8.709h6.807a77.624,77.624,0,0,1-2.639,31.828Z" transform="translate(204.517 452.106)" fill="none" stroke="#404040" stroke-miterlimit="10" stroke-width="3"/>
    <ellipse id="Oval" cx="70.217" cy="61.873" rx="70.217" ry="61.873" transform="matrix(0.283, -0.959, 0.959, 0.283, 412.116, 571.517)" fill="none" stroke="#404040" stroke-miterlimit="10" stroke-width="3"/>
    <path id="Path-34" data-name="Path" d="M0,124.1c-.032-3.62,1.894-6.1,4.066-8.74l7.028-8.463C24.2,91.27,37.015,75.365,50.161,59.783c3.227-3.822,6.535-7.567,10.052-11.149A169.9,169.9,0,0,1,102.443,17c90.856-47.139,108.435,13.533,145.55,63.17,8.947,11.944,27.379,22.532,40.86,29.166,17.137,8.438,55.566,20.079,40.468,47.3-3.1,5.568-18.76,13.748-23.716,5.14-4.641-8.047,10.734-8.69,10.734-15.816,0-5.474-3.789-7.7-8.209-8.9-7.918-2.163-4.073-1.621-12.187-1.677" transform="translate(252.719 252.666)" fill="none" stroke="#404040" stroke-miterlimit="10" stroke-width="3"/>
    <path id="Path-35" data-name="Path" d="M27.883,55.69c-8.96-1.8-20.465-3.475-25.889-11.786A10.624,10.624,0,0,1,.049,39.963c-.511-3.3,3.075-3.115,5.336-2.768,15.009,2.283,29.425,7.567,44.547,8.917,4.212.378,8.461.555,12.692.555h59.215a21.326,21.326,0,0,0,20.332-15.135C145.682,20.237,152.154,7.965,164.1,0" transform="translate(252.721 337.308)" fill="none" stroke="#404040" stroke-miterlimit="10" stroke-width="3"/>
    <path id="Path-36" data-name="Path" d="M6.775,0,0,1.841" transform="translate(467.285 282.86)" fill="none" stroke="#404040" stroke-miterlimit="10" stroke-width="3"/>
    <path id="Path-37" data-name="Path" d="M50.053,6.993C49.46,6.993,15.779-1.3,0,.176" transform="translate(420.199 253.045)" fill="none" stroke="#404040" stroke-miterlimit="10" stroke-width="3"/>
    <path id="Path-38" data-name="Path" d="M41.485,0c9.162,10.891,9.471,24.708,1.85,34.054a25.5,25.5,0,0,1-1.806,2.005.328.328,0,0,1-.107.1,28.758,28.758,0,0,1-3.643,3.153.12.12,0,0,1-.063.063h0a1.262,1.262,0,0,1-.24.2c-.631.467-1.294.9-1.989,1.324-.916.568-1.894,1.11-2.9,1.608C27.1,45.2,20.73,46.761,14.9,45.027A20.609,20.609,0,0,1,3.536,35.656,31.223,31.223,0,0,1,0,26.4" transform="translate(470.998 248.466)" fill="none" stroke="#404040" stroke-miterlimit="10" stroke-width="3"/>
    <path id="Path-39" data-name="Path" d="M28.007,0a25.413,25.413,0,0,1,3.5.53c3.845.858,7.653,2.768,9.73,6.092a9.267,9.267,0,0,1,.695,1.337.063.063,0,0,0,0,.032A.722.722,0,0,0,42,8.154,7.5,7.5,0,0,1,42.315,9a10.79,10.79,0,0,1,.511,2.888v.252a14.437,14.437,0,0,1-.695,5.1V17.3c-.164.511-.347,1.009-.556,1.488v.032a15.683,15.683,0,0,1-9.415,8.621c-.152.057-.316.1-.48.151a12.985,12.985,0,0,1-3.555.435,11.756,11.756,0,0,1-1.49-.107A12.517,12.517,0,0,1,20.518,25.4a9.612,9.612,0,0,1-1.1-1,2.524,2.524,0,0,1-.284-.3c-1.446-1.6-2.639-3.746-4.761-4.168A5.993,5.993,0,0,0,10.112,21.2C5.692,24.159,2.977,28.87,1.7,34.01A22.507,22.507,0,0,0,1.108,36.9a41.031,41.031,0,0,1-.846-5.045C-1,20.9,2.207,10.04,11.918,3.891A26.186,26.186,0,0,1,20.973.341" transform="translate(469.852 237.884)" fill="none" stroke="#404040" stroke-linecap="square" stroke-linejoin="bevel" stroke-miterlimit="10" stroke-width="3"/>
    <path id="Path-40" data-name="Path" d="M32.228.491V.5L25.453.491,18.659.473,0,.441H25.453V.46l6.763.032Z" transform="translate(346.625 520.328)" fill="none" stroke="#404040" stroke-width="3"/>
    <path id="Path-41" data-name="Path" d="M22.725.507H0V.431L6.794.45l6.763.032h.013Z" transform="translate(365.284 520.338)" fill="none" stroke="#404040" stroke-width="3"/>
    <path id="Path-42" data-name="Path" d="M.871,0V1.5H0Z" transform="translate(549.017 434.109)" fill="none" stroke="#404040" stroke-width="3"/>
    <path id="Path-43" data-name="Path" d="M.739.152C.53.284.322.436.107.587A.99.99,0,0,1,0,.455Z" transform="translate(415.552 337.169)" fill="none" stroke="#404040" stroke-width="3"/>
    <path id="Path-44" data-name="Path" d="M.493.493.48.48" transform="translate(510.493 250.987)" fill="none" stroke="#404040" stroke-width="3"/>
    <path id="Path-45" data-name="Path" d="M3.321,0a.063.063,0,0,0,0,.032,18.268,18.268,0,0,1,.922,4.15,11.457,11.457,0,0,1-.17,3.487,6.527,6.527,0,0,1-.524,1.614V9.34a9.578,9.578,0,0,0-.556,1.488v.032C1.68,15.343,1.819,23.472,5.929,25.66c2.425,1.293.688,5.732-1.509,9.674A68.028,68.028,0,0,1,0,42.145" transform="translate(508.467 245.842)" fill="none" stroke="#404040" stroke-miterlimit="10" stroke-width="3"/>
    <path id="Path-46" data-name="Path" d="M94.506,43.752c-.631-.044-1.263-.076-1.837-.076a26.584,26.584,0,0,0-5.2.454c1.989-1.955,2.482-3.954,2.046-5.808-.663-2.794-3.448-5.278-6.4-6.842-5.86-3.1-12.774-5.442-19.492-4.723C55.1,27.69,51.449,34.381,46.012,40c-6.1,6.306-15.622,8.028-24.4,7.637-5.544-.252-11.366-1.337-15.59-4.931-.436-.372-.84-.769-1.263-1.173A18.2,18.2,0,0,1,0,29.393,24.076,24.076,0,0,1,4.609,15.317a34.31,34.31,0,0,1,15.558-11.9A52.677,52.677,0,0,1,39.622.006,69.564,69.564,0,0,1,78.771,11.988a44.48,44.48,0,0,1,13.3,14.189.061.061,0,0,0,.044.057c3.176,5.581,4.546,11.73,2.393,17.519Z" transform="translate(403.353 194.131)" fill="none" stroke="#404040" stroke-miterlimit="10" stroke-width="3"/>
    <path id="Path-47" data-name="Path" d="M5.8,0s-3.157,5.859-3.9,6.42S0,4.919,0,4.919" transform="translate(493.098 275.683)" fill="none" stroke="#404040" stroke-miterlimit="10" stroke-width="3"/>
    <path id="Path-48" data-name="Path" d="M10.419,8.734a12.563,12.563,0,0,1-6.093,1.4C1.073,10.241.013,7.523,0,4.635A23.066,23.066,0,0,1,.594,0a24.668,24.668,0,0,0,3.9,5.89c1.654,1.69,3.65,2.226,5.929,2.844Z" transform="translate(485.337 279.045)" fill="none" stroke="#404040" stroke-miterlimit="10" stroke-width="3"/>
    <ellipse id="Oval-2" data-name="Oval" cx="7.792" cy="7.599" rx="7.792" ry="7.599" transform="translate(483.412 262.062)" fill="none" stroke="#404040" stroke-miterlimit="10" stroke-width="3"/>
    <ellipse id="Oval-3" data-name="Oval" cx="7.792" cy="7.599" rx="7.792" ry="7.599" transform="translate(498.793 274.107)" fill="none" stroke="#404040" stroke-miterlimit="10" stroke-width="3"/>
    <path id="Path-49" data-name="Path" d="M0,0,3.233,2.535" transform="translate(497.278 274.416)" fill="none" stroke="#404040" stroke-miterlimit="10" stroke-width="3"/>
    <path id="Path-50" data-name="Path" d="M0,0,.436.032a4.646,4.646,0,0,1,4.18,3.531" transform="translate(489.536 267.744)" fill="none" stroke="#404040" stroke-miterlimit="10" stroke-width="3"/>
    <path id="Path-51" data-name="Path" d="M0,0H.442a4.652,4.652,0,0,1,4.18,3.531" transform="translate(504.274 280.419)" fill="none" stroke="#404040" stroke-miterlimit="10" stroke-width="3"/>
    <ellipse id="Oval-4" data-name="Oval" cx="10.917" cy="10.904" rx="10.917" ry="10.904" transform="translate(550.69 386.856)" fill="#29d592" stroke="#404040" stroke-miterlimit="10" stroke-width="3"/>
    <ellipse id="Oval-5" data-name="Oval" cx="10.917" cy="10.904" rx="10.917" ry="10.904" transform="translate(550.69 386.856)" fill="#29d592" stroke="#404040" stroke-miterlimit="10" stroke-width="3"/>
  </g>
</svg>
