<svg xmlns="http://www.w3.org/2000/svg" width="447.869" height="563.017" viewBox="0 0 447.869 563.017">
  <g id="group" transform="translate(-129.58 -157.5)">
    <rect id="Rectangle" width="327.142" height="313.854" rx="81.37" transform="translate(248.807 159)" fill="rgba(0,0,0,0)" stroke="#404040" stroke-miterlimit="10" stroke-width="3"/>
    <rect id="Rectangle-2" data-name="Rectangle" width="309.424" height="296.769" rx="76.3" transform="translate(260.196 169.757)" fill="#29d592"/>
    <path id="Path" d="M287.049,399.762a4.622,4.622,0,0,1-3.006,4.317l-43.353,16.174s-2.066-3.832-5.67-10.233l-24.761-41.4c-6.691,34.4-14.154,68.845-18.779,90.312l-4.457,21.374,17.864,5.872a4.923,4.923,0,1,1-2.353,9.561l-41.405-10.488V475.139l-.983-.193L161,356.957,120.538,347.4c-5.073,1.58-10.432,3.029-15.91,4.205a1.249,1.249,0,0,0-.174.037,96.337,96.337,0,0,1-40.727,1.754,1.84,1.84,0,0,1-.367-.081c-.983-.187-1.967-.4-2.932-.622-.293-.056-.579-.112-.871-.193-.847-.193-1.693-.442-2.54-.672-.467-.137-.927-.249-1.369-.386s-.772-.249-1.158-.386a54.966,54.966,0,0,1-19.769-11.1,50.059,50.059,0,0,1-11.042-13.088c-1.245-1.966-2.409-4.031-3.492-6.152-6.573-12.97-7.942-17.381-6.032-17.5a79.962,79.962,0,0,1-12.188-5.474s-8.6-50.17,10.158-100.663a34.877,34.877,0,0,1,.193-9.387c3.953-28.329,25.707-57.448,51.663-69.243,13.905-6.32,36.581-16.018,29.255-35.327-2.316-6.109-5.6-11.371-6.224-17.71-.056-.622-.131-1.176-.174-1.792C85.8,48.684,94.5,34.507,108.575,29.4a34.59,34.59,0,0,1,28.483,1.866,14.165,14.165,0,0,1,3.971,3.11c4.282.112,9.66.865,12.188,2.04a25.542,25.542,0,0,1,10.277,9.462,36.156,36.156,0,0,1,5.347,24.846,35.613,35.613,0,0,1-5.017,13.487,36.133,36.133,0,0,1-4.395,5.748c-1.45,1.518-3.511,3.732-5.5,4.547a.125.125,0,0,0,.156,0l-.579,9.25C165.4,101.05,197.162,89.9,220.447,43.875c1.681-3.564,3.411-7.11,5.229-10.619,5.378-10.445,11.142-20.833,18.779-29.816,1.867-2.177,4.631-4.143,7.6-3.2,2.6.827,4.357,3.732,2.546,6.171l-12.5,17.07,3.99-.516a3.073,3.073,0,0,1,2.1,4.2l-2.527,6,1.2-1.406a4.929,4.929,0,0,1,7.774,6.047l-6.586,8.5a9.665,9.665,0,0,1-3.28,2.675l-13.034,6.283A162.606,162.606,0,0,1,242.476,70.09a254.981,254.981,0,0,1-25.066,38.929c-16.047,20.659-39.152,43.75-67.361,53.4a214.387,214.387,0,0,1-8.328,50.549h42.712l10.644-29.026a6.953,6.953,0,0,1,6.536-4.566h42.544a5.823,5.823,0,0,1,2.16.423,5.7,5.7,0,0,1,3.529,5.263,5.819,5.819,0,0,1-.386,2.022l-2.82,7.328H234.552l-4.88,13.972,1.388-3.527h6a5.7,5.7,0,0,1,5.26,7.9l-5.11,12.217a23.756,23.756,0,0,1-17.852,14.227l-.542.093-1,2.961.517-1.02c-.168.4-.361.846-.535,1.331h13.457s-2.988,8.709-8.484,9.232a6.055,6.055,0,0,1-1.332-.044H193.552c1.562,1.736,3.318,3.838,5.191,6.308,8.092-.118,19.862.746,22.775,6.395a14.822,14.822,0,0,1,1.369,1.792c1.114,1.866,1.481,6.221,1.214,12.51a101.372,101.372,0,0,1-1.625,19.346q2.116,3.969,4.071,7.981a172.671,172.671,0,0,1,7.656,16.286,2.751,2.751,0,0,1,.193.46,478.818,478.818,0,0,1,17.858,47.7l.286,1c3.859,11.371,7,21.7,8.2,27.993l20.23-4.143a4.624,4.624,0,0,1,6.081,4.373Z" transform="translate(134.164 222.304)" fill="#fff"/>
    <path id="Path-2" data-name="Path" d="M41.628,3.2H55.081a24.208,24.208,0,0,1-2.1,4.354c-1.661,2.6-4.225,5.318-7.616,4.857H4.556A7.164,7.164,0,0,1,.163,10.94a7.249,7.249,0,0,1,.23-3.887C16.876,4.528,33.764,1.81,41.317.249L42.742,0Z" transform="translate(309.509 462.672)" fill="#29d592"/>
    <path id="Path-3" data-name="Path" d="M61.015,1.343a5.819,5.819,0,0,1-.386,2.021l-2.812,7.32h-12L40.893,24.741,39.1,29.232H0L9.06,4.565A6.969,6.969,0,0,1,15.6,0H58.122a5.776,5.776,0,0,1,2.159.423,7.126,7.126,0,0,1,.7.33c.019.187.037.4.037.591Z" transform="translate(322.161 407.107)" fill="#29d592"/>
    <path id="Path-4" data-name="Path" d="M15.195,5.691a5.844,5.844,0,0,1-.386,2.021l-2.819,7.32H0L4.169,3.726A5.687,5.687,0,0,1,15.195,5.691Z" transform="translate(367.987 402.753)" fill="#29d592"/>
    <path id="Path-5" data-name="Path" d="M14.272.025S10.414,11.357,3.408,8.919C-.948,7.42-.295,3.085.844,0Z" transform="translate(350.312 465.844)" fill="#29d592"/>
    <path id="Path-6" data-name="Path" d="M220.879,76.828a191.61,191.61,0,0,0-11.826-23.764c1.817-9.621,3.056-26.476-.884-34.126-2.913-5.653-14.671-6.512-22.787-6.394A83.922,83.922,0,0,0,174.047,0S136.315,6.107,127.7,6.157s-8.608,4.82-8.608,4.82-6,18.092-12.785,27.079-25.034,19.9-51.332,24.106S7.994,61.186,3.251,58.549s-4.9-.093,3.591,16.618S28.4,103.9,50.357,107.857A96.19,96.19,0,0,0,91.07,106.1S125.808,97.352,136,90.679s11.783,2.4,11.783,2.4l-1,136.317,26.889,5.361L196.9,123.1l24.773,41.421,25.738-10.573c-3.031-15.9-18.6-57.84-26.534-77.121Z" transform="translate(146.931 468.424)" fill="#29d592"/>
    <path id="Path-7" data-name="Path" d="M30.266,49.687a20.214,20.214,0,0,1-4.619,10.207,20.7,20.7,0,0,1-7.067,5.779,12.544,12.544,0,0,1-2.009.768c0-2.149-.037-4.336-.155-6.466-.439-7.984-2.047-16.3-7.123-22.434A24.878,24.878,0,0,0,.284,30.727c.1-1.474.216-2.936.309-4.41a34.535,34.535,0,0,0-.037-7.581A25.493,25.493,0,0,1,0,14.091c.056-1.456-.155-7.042,1-8.25A16.051,16.051,0,0,0,7.049,7.08C11.7,7.042,15.4,4.181,17.893.52A10.717,10.717,0,0,1,20.725,0c2.819.421-5.6,8.021-2.85,7.16-1.787.551-3.091,3.239-3.932,4.775-1.237,2.378-1.954,5.178-.742,7.693,1.187,2.4,3.673,4.472,5.435,6.448a85.011,85.011,0,0,1,6.653,7.909c3.252,4.534,5.626,10.1,4.977,15.7Z" transform="translate(267.157 313.396)" fill="#29d592"/>
    <path id="Path-8" data-name="Path" d="M28.972,0A37.5,37.5,0,0,1,41.88,3.161a25.07,25.07,0,0,1,9.062,6.846c5.11,6.173,6.728,14.519,7.17,22.541.118,2.159.174,4.356.156,6.5-.093,18.993-3.255,37.788-8.446,56.165h86.115l1.792-4.487,1.432-3.609H145.2a5.707,5.707,0,0,1,5.265,7.91l-5.11,12.222A23.787,23.787,0,0,1,127.5,121.472l-.541.1-1.425.249c-7.556,1.562-24.448,4.282-40.935,6.808-15.081,2.334-29.831,4.493-36.809,5.5q-3.968.579-8.091.846c-16.288,1-33.105-2.62-37.462-21.159C-.6,101.937.018,89.136.149,76.776" transform="translate(225.308 340.764)" fill="rgba(0,0,0,0)" stroke="#404040" stroke-miterlimit="10" stroke-width="3"/>
    <path id="Path-9" data-name="Path" d="M0,.082C10.543-.4,19.991,1.159,24.043,7.755c2.041,3.336,1.544,15.1-.56,31.5" transform="translate(332.26 481.502)" fill="rgba(0,0,0,0)" stroke="#404040" stroke-miterlimit="10" stroke-width="3"/>
    <path id="Path-10" data-name="Path" d="M0,0A.411.411,0,0,1,.056.093c4.512,9.2,12.448,17.139,22.6,22.7,35.769,19.566,89.569-3.361,108.919-12.9a5.06,5.06,0,0,1,7.294,4.549V161.164l41.4,10.486a4.922,4.922,0,1,0,2.353-9.559l-17.857-5.881c.828-5.8,12.94-58.841,23.234-111.726" transform="translate(155.63 547.196)" fill="rgba(0,0,0,0)" stroke="#404040" stroke-miterlimit="10" stroke-width="3"/>
    <path id="Path-11" data-name="Path" d="M62.993,0c10.581,8.961,18.18,22.74,25.294,34.446,17.334,28.521,30.3,59.563,40.369,91.326,3.044,9.6,5.844,19.292,8.489,28.988l20.215-4.151a4.618,4.618,0,0,1,3.056,8.713l-43.35,16.18s-12.684-23.692-30.41-51.653C60.677,82.825,12.672,19.6,0,33.083" transform="translate(257.005 467.806)" fill="rgba(0,0,0,0)" stroke="#404040" stroke-miterlimit="10" stroke-width="3"/>
    <path id="Path-12" data-name="Path" d="M0,60.627S42.51,57.683,71.65,0c0,0,9.211,6.354,22.052,26.231,0,0-36.024,73.1-92.463,92.4" transform="translate(282.182 266.795)" fill="rgba(0,0,0,0)" stroke="#404040" stroke-miterlimit="10" stroke-width="3"/>
    <path id="Path-13" data-name="Path" d="M0,0,2.46,3.787l1.482,2.3A113.313,113.313,0,0,1,7.9,16.947l.074.262,2.816,10.9a.05.05,0,0,1,0,.037A11.519,11.519,0,0,0,14.6,32.014a5.252,5.252,0,0,1,1.021.729c1.691,1.719-2.767,2.217-3.69,2.784A3.125,3.125,0,0,0,10.6,38.061C5.3,60.377,8.708,54.516,6.432,59.48c1.974-1.694,6.881-7.082,6.881-7.082a8.622,8.622,0,0,0,1.593-2.224,39.661,39.661,0,0,0,3.265-6.228,33,33,0,0,0,1.845-20.6C17.477,12.637,11.555,1.925,0,0Z" transform="translate(278.547 260.243)" fill="#29d592"/>
    <path id="Path-14" data-name="Path" d="M129.565,12.693a12.6,12.6,0,0,1-3.163,6.18,24.965,24.965,0,0,1-6.04,4.841c-4.238,2.529-8.954,4.442-12.514,7.856a19.628,19.628,0,0,0-5.971,13.052c-.249,5.071,1.56,10.323,2.659,15.07,3.486,15.344,2.367,30.091.441,45.535-1.827,14.572-5.716,28.832-13.26,41.516A79.468,79.468,0,0,1,51.771,179.8c-13.67,5.115-40.233,9.65-50.28-4.579C-.242,170.734-.261,165.594.41,160.753c3.946-28.4,25.662-57.54,51.573-69.352C65.864,85.072,88.5,75.347,81.187,56c-2.33-6.1-5.592-11.363-6.214-17.737-.056-.579-.112-1.159-.168-1.776C73.761,21.539,82.442,7.348,96.5,2.227A34.355,34.355,0,0,1,124.93,4.1a14.434,14.434,0,0,1,4.064,3.227,2.005,2.005,0,0,1,.211.287,4.742,4.742,0,0,1,.211.679,11.111,11.111,0,0,1,.149,4.4Z" transform="translate(148.196 253.915)" fill="#29d592"/>
    <path id="Path-15" data-name="Path" d="M1,61.782c7.521-1.736,14.121-7.12,16.007-14.986,1.756-7.288-1.021-14.769-5.323-20.631C7.694,20.75-.617,16.206.036,8.526a12.013,12.013,0,0,1,3.051-6.6C3.666,1.257,4.264.635,4.918,0" transform="translate(282.486 317.745)" fill="rgba(0,0,0,0)" stroke="#404040" stroke-miterlimit="10" stroke-width="3"/>
    <path id="Path-16" data-name="Path" d="M.565,0,.216,25.411" transform="translate(267.413 319.114)" fill="rgba(0,0,0,0)" stroke="#404040" stroke-miterlimit="10" stroke-width="3"/>
    <path id="Path-17" data-name="Path" d="M81.367,55.963c-2.322-6.1-5.6-11.358-6.226-17.719-.062-.585-.118-1.17-.162-1.792C73.926,21.515,82.631,7.344,96.708,2.222a34.554,34.554,0,0,1,28.5,1.867,14.449,14.449,0,0,1,4.059,3.23l.293.355a11.237,11.237,0,0,1,2.385,8.993,12.576,12.576,0,0,1-3.15,6.161,25.351,25.351,0,0,1-6.064,4.854c-4.246,2.527-8.966,4.425-12.545,7.836a19.564,19.564,0,0,0-5.965,13.07c-.255,5.066,1.563,10.306,2.646,15.061,3.493,15.329,2.378,30.054.448,45.476-1.83,14.557-5.722,28.809-13.293,41.48a79.516,79.516,0,0,1-40.027,33.029c-13.965,5.2-41.347,9.808-50.966-5.421C-.207,173.1-.419,166.638.416,160.651c3.954-28.361,25.726-57.488,51.676-69.281C66.026,84.971,88.707,75.281,81.367,55.963Z" transform="translate(145.146 250.411)" fill="rgba(0,0,0,0)" stroke="#404040" stroke-miterlimit="10" stroke-width="3"/>
    <circle id="Oval" cx="2.531" cy="2.531" r="2.531" transform="translate(277.914 284.288)" fill="#404040"/>
    <path id="Path-18" data-name="Path" d="M6.107,0S-2.087,3.694.508,10.877" transform="translate(273.566 278.937)" fill="rgba(0,0,0,0)" stroke="#404040" stroke-miterlimit="10" stroke-width="3"/>
    <path id="Path-19" data-name="Path" d="M27.824,60.03c2.053-.746,4.243-3.109,5.736-4.658a37.091,37.091,0,0,0,4.4-5.727,35.638,35.638,0,0,0-.342-38.326,25.355,25.355,0,0,0-10.26-9.453A19.582,19.582,0,0,0,15.909.249,34.577,34.577,0,0,1,21.72,6.306a28.6,28.6,0,0,1,5.2,11.256c.137.715.255,1.424.38,2.145.622,3.843.971,7.736,2.856,10.883a11.682,11.682,0,0,0,3.87,3.9,5.313,5.313,0,0,1,1.033.728c1.711,1.716-2.8,2.208-3.733,2.774-2.4,1.4-1.506,5.417-1.823,7.742A25.812,25.812,0,0,1,27.1,53.544a21.421,21.421,0,0,1-1.462,2.525c-2.489,3.688-6.222,6.573-10.913,6.6a16.183,16.183,0,0,1-6.079-1.244A23.468,23.468,0,0,1,0,55.347" transform="translate(259.421 257.837)" fill="rgba(0,0,0,0)" stroke="#404040" stroke-miterlimit="10" stroke-width="3"/>
    <path id="Path-20" data-name="Path" d="M8.088,4.185S2.445,7.4,0,0" transform="translate(274.652 300.815)" fill="rgba(0,0,0,0)" stroke="#404040" stroke-miterlimit="10" stroke-width="3"/>
    <path id="Path-21" data-name="Path" d="M10.272,55.774l14.061-6.791a9.151,9.151,0,0,0,3.279-2.662l6.564-8.513a4.927,4.927,0,0,0-7.771-6.051l-1.2,1.4,2.532-5.989a3.109,3.109,0,0,0-2.1-4.21l-4,.529L34.145,6.415C35.918,4,34.195,1.073,31.6.246,28.614-.705,25.851,1.26,24,3.436,16.369,12.416,10.589,22.8,5.22,33.249Q2.514,38.516,0,43.871" transform="translate(353.948 223.319)" fill="rgba(0,0,0,0)" stroke="#404040" stroke-linejoin="round" stroke-miterlimit="10" stroke-width="3"/>
    <path id="Path-22" data-name="Path" d="M2.762,0S-5.395,10.143,6.327,9.67" transform="translate(372.832 246.805)" fill="rgba(0,0,0,0)" stroke="#404040" stroke-miterlimit="10" stroke-width="3"/>
    <path id="Path-23" data-name="Path" d="M2.415,0s-6.048,9.807,1,12.214S14.305,3.3,14.305,3.3H.711" transform="translate(350.469 462.484)" fill="rgba(0,0,0,0)" stroke="#404040" stroke-miterlimit="10" stroke-width="3"/>
    <path id="Path-24" data-name="Path" d="M28.048.491H0" transform="translate(327.002 474.492)" fill="rgba(0,0,0,0)" stroke="#404040" stroke-miterlimit="10" stroke-width="3"/>
    <path id="Path-25" data-name="Path" d="M15.187,5.691A5.843,5.843,0,0,1,14.8,7.712l-2.812,7.319H0L4.162,3.726A5.687,5.687,0,0,1,15.187,5.691Z" transform="translate(368.177 402.672)" fill="rgba(0,0,0,0)" stroke="#404040" stroke-miterlimit="10" stroke-width="3"/>
    <path id="Path-26" data-name="Path" d="M6.844,15.025,0,33.563l10.62-29A6.962,6.962,0,0,1,17.172,0H59.691" transform="translate(317.98 402.678)" fill="rgba(0,0,0,0)" stroke="#404040" stroke-miterlimit="10" stroke-width="3"/>
    <path id="Path-27" data-name="Path" d="M0,18.538,6.807,0" transform="translate(361.371 417.703)" fill="rgba(0,0,0,0)" stroke="#404040" stroke-miterlimit="10" stroke-width="3"/>
    <path id="Path-28" data-name="Path" d="M12.127,0C-6.631,50.478,1.967,100.645,1.967,100.645c28.334,15.758,68.507,14.39,97.283.541,10.179-4.913,21.154-12.313,25.6-23.159,3.26-7.941,6.651-15.821,9.445-23.874" transform="translate(133.629 420.327)" fill="rgba(0,0,0,0)" stroke="#404040" stroke-miterlimit="10" stroke-width="3"/>
    <path id="Path-29" data-name="Path" d="M0,.491H165.081" transform="translate(129.58 577.332)" fill="rgba(0,0,0,0)" stroke="#404040" stroke-miterlimit="10" stroke-width="3"/>
    <path id="Path-30" data-name="Path" d="M1.779,0,0,6.014" transform="translate(273.507 436.26)" fill="rgba(0,0,0,0)" stroke="#404040" stroke-miterlimit="10" stroke-width="3"/>
    <path id="Path-31" data-name="Path" d="M9.631,21.585S2.364,8.625,0,0" transform="translate(146.242 525.897)" fill="rgba(0,0,0,0)" stroke="#404040" stroke-miterlimit="10" stroke-width="3"/>
  </g>
</svg>
