<svg xmlns="http://www.w3.org/2000/svg" width="433.82" height="563.103" viewBox="0 0 433.82 563.103">
  <g id="group" transform="translate(-387.681 -258.5)">
    <path id="Path" d="M83.349,82.032l-42.311-.318A79.406,79.406,0,0,1,0,69.955a123.363,123.363,0,0,0,25.835-2.767H27.64c9.919-.422,18.676-7.138,24.43-15.217S61.3,34.437,65.544,25.438,75.152,7.558,83.48,2.121c.8-.526,1.619-1,2.442-1.459A322.23,322.23,0,0,1,123.667.454C112.448,5.746,73.16,28.184,83.349,82.032Z" transform="translate(474.266 545.196)" fill="#29d592"/>
    <path id="Path-2" data-name="Path" d="M32.421,0s-4.15,12.637,9.027,17.59,11.98-.194,11.966,8.625c0,0,2.656,3.818-2.822,3.943s-27.37-3.306-35.664-2.213-23.517.422-8.715-3.929S30.678,12.492,32.421,0Z" transform="translate(571.882 516.205)" fill="#29d592"/>
    <path id="Path-3" data-name="Path" d="M7.89,0a13.059,13.059,0,0,1,6.467,4.15c3.085,3.458,8.127,7.47,8.923,17.9s5.07,13.668,6.011,14.567.249,4.15-5.921,3.576S-.77,36.8.026,15.715C.026,15.688-.514,3.638,7.89,0Z" transform="translate(519.006 472.414)" fill="#29d592"/>
    <path id="Path-4" data-name="Path" d="M.007,5.607S-.339,7.281,4,7.592,26.782,8.74,28.774,29.035s-8.688,45.859-2.435,47.395,19.824,5.118,23.836,2.628,26.284-16.773,51.282-7.111c0,0,3.943,3.86,4.039-7.055s1.529-28.581-5.99-26.16-12.45-1.667-14.629,7.9S63.49,47.9,63.49,47.9,51.4,37.874,44.849,18.507,21.6-.514,16.164.267.007,5.607.007,5.607Z" transform="translate(453.481 349.137)" fill="#29d592"/>
    <path id="Path-5" data-name="Path" d="M175.329,234.361c-4.724-2.573-4.62-6.225-7.3-9.442l-3.894,8.238a10.1,10.1,0,0,0,4.323,10.237l37.075,31.2a7.366,7.366,0,0,0,11.482-6.1,7.1,7.1,0,0,0-.394-2.366L143.007,47.356a48.474,48.474,0,0,0-24.458-28.013C97.909,9.105,56.407-3.85,0,1.081" transform="translate(563.93 544.147)" fill="none" stroke="#404040" stroke-linecap="round" stroke-linejoin="round" stroke-miterlimit="10" stroke-width="3"/>
    <path id="Path-6" data-name="Path" d="M256.451,153.707c-25.973-35.5-63.635-94.388-70.891-117.048-7.609-23.607-28.94-24.534-49.553-24.029l-94.623-.692A79.385,79.385,0,0,1,0,0" transform="translate(475.511 615.38)" fill="none" stroke="#404040" stroke-linecap="round" stroke-linejoin="round" stroke-miterlimit="10" stroke-width="3"/>
    <path id="Path-7" data-name="Path" d="M82.823,124.857c-.159-19.893-.055-60.177.048-91.995C82.954,6.018,52.236-9.635,30.8,6.578c-9.31,7-19.63,14.193-30.8,26.34" transform="translate(595.706 436.751)" fill="none" stroke="#404040" stroke-linecap="round" stroke-linejoin="round" stroke-miterlimit="10" stroke-width="3"/>
    <path id="Path-8" data-name="Path" d="M3.653,0S-2,15.867.762,32.074" transform="translate(625.108 514.759)" fill="none" stroke="#404040" stroke-linecap="round" stroke-linejoin="round" stroke-miterlimit="10" stroke-width="3"/>
    <path id="Path-9" data-name="Path" d="M46.364,1.147h-.076C25.44-2.622,10.32,3.451,0,11.308" transform="translate(501.138 418.698)" fill="none" stroke="#404040" stroke-linecap="round" stroke-linejoin="round" stroke-miterlimit="10" stroke-width="3"/>
    <path id="Path-10" data-name="Path" d="M30.208,0C26.867.816,24.93,1.383,24.93,1.383-38.705,38.52,36.2,158.556,64.723,164a131.962,131.962,0,0,0,21.595,2.331c17,.477,28.145-2.469,28.145-2.469" transform="translate(389.193 449.028)" fill="none" stroke="#404040" stroke-linecap="round" stroke-linejoin="round" stroke-miterlimit="10" stroke-width="3"/>
    <path id="Path-11" data-name="Path" d="M0,0,39.129,82.235,47.581,70.96,12.022,0Z" transform="translate(464.527 482.264)" fill="none" stroke="#404040" stroke-linecap="round" stroke-linejoin="round" stroke-miterlimit="10" stroke-width="3"/>
    <path id="Path-12" data-name="Path" d="M0,23.13,36.473,5.6V5.568L48.093,0" transform="translate(485.271 476.537)" fill="none" stroke="#404040" stroke-linecap="round" stroke-linejoin="round" stroke-miterlimit="10" stroke-width="3"/>
    <path id="Path-13" data-name="Path" d="M87.194,47.858,108.284,34.4h13.9l20.266-22.653L134.471,0,105.289,11.752l-4.641,12.125L0,72.316" transform="translate(564.165 389.418)" fill="none" stroke="#404040" stroke-linecap="round" stroke-linejoin="round" stroke-miterlimit="10" stroke-width="3"/>
    <path id="Path-14" data-name="Path" d="M0,13.052,19.5,0" transform="translate(576.207 469.661)" fill="none" stroke="#404040" stroke-linecap="round" stroke-linejoin="round" stroke-miterlimit="10" stroke-width="3"/>
    <path id="Path-15" data-name="Path" d="M42.733,0,32.074,7.138,0,28.6" transform="translate(501.747 503.935)" fill="none" stroke="#404040" stroke-linecap="round" stroke-linejoin="round" stroke-miterlimit="10" stroke-width="3"/>
    <path id="Path-16" data-name="Path" d="M17.375,54.028C16.87,37.981,10.265,21.85,3.77,7.394A82.719,82.719,0,0,0,0,0" transform="translate(561.882 387.011)" fill="none" stroke="#404040" stroke-linecap="round" stroke-linejoin="round" stroke-miterlimit="10" stroke-width="3"/>
    <path id="Path-17" data-name="Path" d="M69.695,11.53C75.29,27.82,83.01,58.323,59.423,50.957,27.605,41.01,44.171-7.747.4,1.058a1.266,1.266,0,0,1-.291.048.1.1,0,0,0-.055,0H0" transform="translate(464.126 349.079)" fill="none" stroke="#404040" stroke-linecap="round" stroke-linejoin="round" stroke-miterlimit="10" stroke-width="3"/>
    <path id="Path-18" data-name="Path" d="M0,.587c17.161-2.677,46,1.3,26.658,66.478" transform="translate(449.884 356.73)" fill="none" stroke="#404040" stroke-linecap="round" stroke-linejoin="round" stroke-miterlimit="10" stroke-width="3"/>
    <path id="Path-19" data-name="Path" d="M1.217,34.488A83.694,83.694,0,0,0,0,0" transform="translate(556.764 387.876)" fill="none" stroke="#404040" stroke-linecap="round" stroke-linejoin="round" stroke-miterlimit="10" stroke-width="3"/>
    <path id="Path-20" data-name="Path" d="M22.273,14S-1.12,13.529.042,0" transform="translate(602.823 521.794)" fill="none" stroke="#404040" stroke-linecap="round" stroke-linejoin="round" stroke-miterlimit="10" stroke-width="3"/>
    <path id="Path-21" data-name="Path" d="M44.933,0S-10.2,20.135,1.674,82.8" transform="translate(557.538 544.834)" fill="none" stroke="#404040" stroke-linecap="round" stroke-linejoin="round" stroke-miterlimit="10" stroke-width="3"/>
    <path id="Path-22" data-name="Path" d="M7.8,0A17.292,17.292,0,0,0,1.007,9.13a24.949,24.949,0,0,0,12.07,28.947,17,17,0,0,0,14.671.74,13.045,13.045,0,0,0,2.386-1.383" transform="translate(519.098 472.414)" fill="none" stroke="#404040" stroke-linecap="round" stroke-linejoin="round" stroke-miterlimit="10" stroke-width="3"/>
    <path id="Path-23" data-name="Path" d="M0,0A137.224,137.224,0,0,1,6.654,19.471a4.42,4.42,0,0,1,.187.692c.27,1.038.5,2.075.747,3.154.263,1.252.526,2.469.768,3.714.055.4.131.8.187,1.2a.692.692,0,0,1,0,.214c.048.291.1.581.159.9.048.5.131,1.038.235,1.591a.436.436,0,0,0,0,.187" transform="translate(595.699 469.661)" fill="none" stroke="#404040" stroke-linecap="round" stroke-linejoin="round" stroke-miterlimit="10" stroke-width="3"/>
    <path id="Path-24" data-name="Path" d="M0,14.216C8.3,6.289,19.236-.129,30.434,0h.076a21.829,21.829,0,0,1,2.684.159c7.477.8,13.834,5.755,19.2,11A115.6,115.6,0,0,1,68.927,31.439" transform="translate(516.964 419.83)" fill="none" stroke="#404040" stroke-linecap="round" stroke-linejoin="round" stroke-miterlimit="10" stroke-width="3"/>
    <path id="Path-25" data-name="Path" d="M182,38.472a.693.693,0,0,1,0,.214c.048.291.1.581.159.9,1.114,8.833,1.058,16.981-2.732,25.15-3.209,6.917-10.375,11.275-17.244,13.9-8.411,3.216-17.59,4.78-25.122,9.684-8.3,5.437-13.689,14.325-17.936,23.317s-7.692,18.44-13.474,26.533-14.525,14.8-24.43,15.217c-8.3.318-16.186-3.77-22.95-8.618C39.812,131.5,26.6,112.081,16.468,91.732,7.58,73.907.684,54.7.047,34.806c-.318-9.393.9-19.153,5.866-27.114A34.156,34.156,0,0,1,12.435,0" transform="translate(422.273 459.417)" fill="none" stroke="#404040" stroke-linecap="round" stroke-linejoin="round" stroke-miterlimit="10" stroke-width="3"/>
    <path id="Path-26" data-name="Path" d="M168.3.49H0" transform="translate(390.911 627.139)" fill="none" stroke="#404040" stroke-linecap="round" stroke-linejoin="round" stroke-miterlimit="10" stroke-width="3"/>
    <path id="Path-27" data-name="Path" d="M100.807.49H0" transform="translate(719.193 627.139)" fill="none" stroke="#404040" stroke-linecap="round" stroke-linejoin="round" stroke-miterlimit="10" stroke-width="3"/>
    <path id="Path-28" data-name="Path" d="M56.912,38.977V80.1A20.142,20.142,0,0,1,44.42,98.78C34.578,102.792,21.546,107.3,0,108.07V78.742a16.759,16.759,0,0,0,17.292-3.375c1-.9,1.985-1.771,2.905-2.538,3.6-3.12,6.53-5.132,8-4.572,3.057,1.127,3.458,1.127,5.34-8.778,1.383-7.131,12.921-15.017,15.7-28.124a27.73,27.73,0,0,0,.47-8.3A35.919,35.919,0,0,0,47.3,13.142,49.642,49.642,0,0,0,39.689,0l5.983,6.128c.553.581,1.086,1.155,1.577,1.757,7.339,8.563,9.663,19.6,9.663,31.091Z" transform="translate(540.965 276.002)" fill="#29d592"/>
    <path id="Path-29" data-name="Path" d="M102.134,42.543c-.069.553-.173,1.093-.277,1.6-1.328-.09-5.125.443-9.483,2.967a27.944,27.944,0,0,0-7.927,6.827c-3.327,4.15-19.305,22.252-32.565,37.22L46.972,96.7a7.456,7.456,0,0,1-11.413-.3L2.932,55.513a13.606,13.606,0,0,1,1.6-18.579L33.968,10.65l1.176-.975c.574-.422,1.148-.83,1.715-1.224C55.251-3.184,73.339-1.967,86.661,7l5.658,5.8A49.643,49.643,0,0,1,99.928,25.95a31.707,31.707,0,0,1,2.206,16.594Z" transform="translate(488.356 263.208)" fill="#29d592"/>
    <path id="Path-30" data-name="Path" d="M5.976,6.128.318.325,0,0A.443.443,0,0,1,.131.09L.664.56A44.268,44.268,0,0,1,5.831,5.942C5.872,6,5.935,6.066,5.976,6.128Z" transform="translate(574.686 269.895)" fill="#29d592"/>
    <path id="Path-31" data-name="Path" d="M.726.591A7.8,7.8,0,0,1,0,.245" transform="translate(540.239 354.153)" fill="none" stroke="#404040" stroke-width="3"/>
    <path id="Path-32" data-name="Path" d="M0,0A.408.408,0,0,1,.131.09a44.738,44.738,0,0,1,5.7,5.852c.042.062.111.125.152.187Z" transform="translate(578.835 273.097)" fill="#29d592" stroke="#404040" stroke-width="3"/>
    <path id="Path-33" data-name="Path" d="M0,62.73c3.458-3.908,8.459-9.525,13.834-15.653C27.142,32.109,43.12,13.98,46.447,9.83,53.364,1.288,61.74-.123,63.857.008" transform="translate(526.357 307.321)" fill="none" stroke="#404040" stroke-linecap="round" stroke-linejoin="round" stroke-miterlimit="10" stroke-width="3"/>
    <path id="Path-34" data-name="Path" d="M58.835,94.4a7.8,7.8,0,0,0,.726.346,16.759,16.759,0,0,0,17.292-3.375c4.932-4.441,9.054-7.816,10.908-7.111,3.057,1.127,3.458,1.127,5.34-8.778,1.383-7.131,12.921-15.017,15.7-28.124,1.086-5.174.83-11.15-1.944-18.2A49.8,49.8,0,0,0,99.25,16.016c-.048-.062-.111-.125-.152-.187a44.738,44.738,0,0,0-5.7-5.852.443.443,0,0,0-.131-.09C78.7-2.473,56.836-4.693,35.1,11.617c-.387.3-.768.623-1.134.941L4.537,38.842A13.578,13.578,0,0,0,2.932,57.4l42.006,52.617" transform="translate(481.384 260)" fill="none" stroke="#404040" stroke-linecap="round" stroke-linejoin="round" stroke-miterlimit="10" stroke-width="3"/>
    <path id="Path-35" data-name="Path" d="M0,.026A7.7,7.7,0,0,1,5.872,2.261" transform="translate(571.047 319.628)" fill="none" stroke="#404040" stroke-linecap="round" stroke-linejoin="round" stroke-miterlimit="10" stroke-width="3"/>
    <ellipse id="Oval" cx="3.189" cy="1.999" rx="3.189" ry="1.999" transform="matrix(0.651, -0.759, 0.759, 0.651, 565.491, 326.437)" fill="#404040"/>
    <path id="Path-36" data-name="Path" d="M33.72,0,39.7,6.128l5.976,6.128c8.563,8.778,11.233,20.55,11.233,32.828V91.379A20.142,20.142,0,0,1,44.42,110.055c-9.843,4.012-22.874,8.522-44.42,9.289V84.85" transform="translate(540.966 269.895)" fill="none" stroke="#404040" stroke-linecap="round" stroke-linejoin="round" stroke-miterlimit="10" stroke-width="3"/>
    <path id="Path-37" data-name="Path" d="M6.225,4.793S1.432,6.405,0,0" transform="translate(554.931 344.03)" fill="none" stroke="#404040" stroke-linecap="round" stroke-linejoin="round" stroke-miterlimit="10" stroke-width="3"/>
    <path id="Path-38" data-name="Path" d="M90.062,0,84.21,7.069A4.876,4.876,0,0,1,79.95,8.8c-4-.387-8-.567-11.994-.567C7.606,8.231-32.028,117.553,34.8,122.3c65.5,4.641,91.524,1.778,96.145,35.809,1.086,8.017,5.942,15.909,15.037,12.845,11.33-3.8,18.517-17.486,16.718-29-1.833-11.7-10.666-21.491-19.609-28.6-17.583-13.924-39.1-19.838-60.7-24.209-7-1.383-29.258-3.237-22.2-15.259" transform="translate(411.823 339.402)" fill="none" stroke="#404040" stroke-linecap="round" stroke-linejoin="round" stroke-miterlimit="10" stroke-width="3"/>
  </g>
</svg>
