<svg xmlns="http://www.w3.org/2000/svg" width="537.238" height="563.015" viewBox="0 0 537.238 563.015">
  <g id="group" transform="translate(-78.431 -118.288)">
    <path id="Path" d="M0,33.684s42.093-4.854,42.349,46.8L160.182,46.173l18.5-5.818S152.137,8.151,121.514,2.61a50.859,50.859,0,0,0,1.852,9.237c1.581,5.548-3.661,8.807-10.936,10.873S90.427,12.561,87.9,1.778c0,0,3.634-3.28-9.9-.929S23.383,12.741,0,33.684Z" transform="translate(266.909 217.133)" fill="#29d592"/>
    <path id="Path-2" data-name="Path" d="M4.157,72.313a7.94,7.94,0,0,0,3.738.95,7.857,7.857,0,0,0,6.123-2.947L40.577,37.758l21.435-26.9L44.468,1.018A7.878,7.878,0,0,0,33.74,4L1.03,61.439A7.919,7.919,0,0,0,4.157,72.313Z" transform="translate(80.005 429.188)" fill="#404040"/>
    <path id="Path-3" data-name="Path" d="M0,0,22.107,21.747a10.222,10.222,0,0,0,7.177,2.947H84.6A8.835,8.835,0,0,0,85.51,7.066L54.818,3.89Z" transform="translate(488.447 655.108)" fill="#404040"/>
    <path id="Path-4" data-name="Path" d="M0,26.962v1.879A97.209,97.209,0,0,1,33.91,44.79c1.643,1.207,3.252,2.427,4.854,3.717a45.68,45.68,0,0,0-2.08-15.256,22.794,22.794,0,0,0-7.33-10.7A38.082,38.082,0,0,0,19.174,17.2a75.634,75.634,0,0,1-10.4-4.494A22.627,22.627,0,0,1,1.657,6.588,6.4,6.4,0,0,1,.964.187,3.779,3.779,0,0,1,.014,0Z" transform="translate(386.593 190.305)" fill="#29d592"/>
    <path id="Path-5" data-name="Path" d="M0,26.962v1.879A97.209,97.209,0,0,1,33.91,44.79c1.643,1.207,3.252,2.427,4.854,3.717a45.68,45.68,0,0,0-2.08-15.256,22.794,22.794,0,0,0-7.33-10.7A38.082,38.082,0,0,0,19.174,17.2a75.634,75.634,0,0,1-10.4-4.494A22.627,22.627,0,0,1,1.657,6.588,6.4,6.4,0,0,1,.964.187,3.779,3.779,0,0,1,.014,0Z" transform="translate(386.593 190.305)" fill="#29d592"/>
    <path id="Path-6" data-name="Path" d="M19.123,211.559a50.8,50.8,0,0,0,15.117,7.413c2.323.693-3.169,3.287-.784,3.752-9.438-22.274-2.7-56.517,27.156-87.764C65.7,129.634,77.387,122.886,83.15,118.2c9.272-7.538,19.417-8.516,29.125-13.037a119.476,119.476,0,0,1,13.342-5.215,121.9,121.9,0,0,1,24.9-5.464c1.921-.236,3.821-.4,5.742-.506a29.521,29.521,0,0,1,.277-9.93c1.768-8.973,4.854-14.126,10.471-21.2,3.523-4.452,9.015-15.1,1.685-18.765-4.618-2.3-5.041-7.011-2.871-9.882,1.838-2.455,5.548-3.571,10.138-.693,3.169,2.025,6.935,2.157,10.554,1.165a23.425,23.425,0,0,0,7.184-6.5c5.319-7.628,5.506-19.174-2.809-24.77C186.343.339,180.56-.4,175.13.186A34.583,34.583,0,0,0,168,1.788a.076.076,0,0,0-.062,0c-9.819,5.3-16.851,15.1-20.228,26.136-1.983,6.525-4.223,12.988-6.844,19.32-2.15,5.194-3.648,11.511-8.446,15.055a18.966,18.966,0,0,1-6.692,3.169C116.672,71.21,104.106,67.9,94.2,66.675a50.414,50.414,0,0,0-23.522,2.379c-8.446,4.265-15.707,11.1-21.6,19.951-9.708,14.674.569,35.831-15.707,47.4-4.9,3.467-10.582,5.6-15.95,8.321-7.683,3.911-13.869,9.459-16.151,18.03-4.556,17.17,3.509,38.39,17.85,48.8Z" transform="translate(198.509 122.556)" fill="#29d592"/>
    <path id="Path-7" data-name="Path" d="M385.153.49H0" transform="translate(230.516 679.305)" fill="none" stroke="#404040" stroke-miterlimit="10" stroke-width="3"/>
    <path id="Path-8" data-name="Path" d="M0,2.788A49.18,49.18,0,0,1,2.531,9.119c1.012,3.53-.083,5.707,1.456,9.063.527,1.158,1.29,3.121,2.08,5.111.229-.465.444-.846.569-1.144C12.676,8.7,4.736,2.219.915,0A19.916,19.916,0,0,1,0,2.788Z" transform="translate(400.718 140.973)" fill="#29d592"/>
    <path id="Path-9" data-name="Path" d="M263.594,78.264c-6.456,22.7-16.872,45.713-25.505,60.261a48.369,48.369,0,0,1-63.174,18.557L80.154,110.058V88.776l-39.6-47.509L14,73.8A7.894,7.894,0,0,1,1.01,64.928L33.72,7.517A7.878,7.878,0,0,1,44.448,4.535l17.544,9.84L162.544,70.691a12.1,12.1,0,0,0,17.794-8.28L192.251,0" transform="translate(80.025 425.706)" fill="none" stroke="#404040" stroke-miterlimit="10" stroke-width="3"/>
    <path id="Path-10" data-name="Path" d="M0,0,25.762,20.956A330.848,330.848,0,0,1,95.7,96.543l51.468,73.9h83.076" transform="translate(300.008 467.861)" fill="none" stroke="#404040" stroke-miterlimit="10" stroke-width="3"/>
    <path id="Path-11" data-name="Path" d="M87.062,358.42,104.1,375.209l22.107,21.747a10.221,10.221,0,0,0,7.177,2.947H188.7a8.835,8.835,0,0,0,.908-17.628L158.918,379.1,10.754,143.5C3.126,131.334-3.669,111.314,2.246,98.2,24.776,48.32,22.828,0,22.828,0" transform="translate(384.347 279.9)" fill="none" stroke="#404040" stroke-miterlimit="10" stroke-width="3"/>
    <path id="Path-12" data-name="Path" d="M187.335,66.259V99.135c3.183,4.646,4.792,11.234,1.748,16.171-4.071,6.609-13.065,5.513-18.772,1.817a44.24,44.24,0,0,1-4.792-3.592A27.482,27.482,0,0,1,156.3,96.348a29.66,29.66,0,0,1,.27-9.923c1.782-8.966,4.854-14.119,10.492-21.206,3.523-4.445,9.015-15.1,1.671-18.765-8.592-4.286-2.642-16.83,7.267-10.561,7.683,4.854,18.723-1.2,23.286-7.725C204.6,20.539,204.8,8.993,196.475,3.4,191.933.339,186.149-.4,180.726.186,164.187,2,152.426,14.929,147.718,30.3c-1.983,6.525-4.223,12.988-6.837,19.32-2.157,5.2-3.655,11.511-8.446,15.055-9.119,6.824-22.336,3.252-32.662,1.99-21.5-2.642-38.834,6.879-50.678,24.7-9.708,14.674.569,35.831-15.714,47.4-4.9,3.467-10.575,5.6-15.95,8.321-7.69,3.9-13.869,9.459-16.158,18.03-4.556,17.225,3.509,38.452,17.843,48.861a55.541,55.541,0,0,0,22.232,9.181" transform="translate(199.258 119.803)" fill="none" stroke="#404040" stroke-miterlimit="10" stroke-width="3"/>
    <path id="Path-13" data-name="Path" d="M38.1,54.582c.042-.4.062-.777.076-1.151.361-6.8.319-13.869-1.9-20.381a22.822,22.822,0,0,0-7.33-10.693A38.282,38.282,0,0,0,18.775,17a74.329,74.329,0,0,1-10.4-4.494A22.191,22.191,0,0,1,1.265,6.387,6.4,6.4,0,0,1,.537,0" transform="translate(390.923 188.218)" fill="none" stroke="#404040" stroke-miterlimit="10" stroke-width="3"/>
    <path id="Path-14" data-name="Path" d="M.49,64.242V0" transform="translate(159.696 450.247)" fill="none" stroke="#404040" stroke-miterlimit="10" stroke-width="3"/>
    <path id="Path-15" data-name="Path" d="M0,35.089c2.49,3.557,5.867,7.4,10.124,8.793,5.513,1.789,9.223-2.885,11.2-7.441,1.186-2.711,2-5.6,2.954-8.4.312-.922.5-1.387,1.56-1.442s2.164.166,3.245.166a.43.43,0,0,0,.361-.693c-1.456-2.212-3.627-8.259-4.729-10.679-1.526-3.356-.423-5.548-1.449-9.057A52.4,52.4,0,0,0,20.748,0" transform="translate(379.928 144.038)" fill="none" stroke="#404040" stroke-miterlimit="10" stroke-width="3"/>
    <path id="Path-16" data-name="Path" d="M0,0S15.027,5.756,7.267,23.078c-.478,1.054-1.657,3.238-2.212,4.23" transform="translate(402.299 137.561)" fill="none" stroke="#404040" stroke-miterlimit="10" stroke-width="3"/>
    <path id="Path-17" data-name="Path" d="M5.492,3.648A4.993,4.993,0,0,1,0,0" transform="translate(395.975 176.304)" fill="none" stroke="#404040" stroke-miterlimit="10" stroke-width="3"/>
    <path id="Path-18" data-name="Path" d="M8.606.923C5.492-1.608,2.08,1.617,0,3.981" transform="translate(395.406 155.825)" fill="none" stroke="#404040" stroke-miterlimit="10" stroke-width="3"/>
    <path id="Path-19" data-name="Path" d="M0,0A97.354,97.354,0,0,1,33.931,15.95c2.954,2.136,5.8,4.41,8.571,6.775C53.417,31.989,63.021,42.71,72.355,53.549" transform="translate(386.593 218.938)" fill="none" stroke="#404040" stroke-miterlimit="10" stroke-width="3"/>
    <path id="Path-20" data-name="Path" d="M66.974,70.83a.736.736,0,0,1-.153-.125C54.575,58.458,42.238,46.3,29.957,34.1,19.666,23.876,6.283,13.411,0,0" transform="translate(405.975 303.907)" fill="none" stroke="#404040" stroke-miterlimit="10" stroke-width="3"/>
    <path id="Path-21" data-name="Path" d="M0,.971C1,.652,1.949.333,2.85,0A.076.076,0,0,0,2.9,0" transform="translate(329.354 461.939)" fill="none" stroke="#404040" stroke-miterlimit="10" stroke-width="3"/>
    <path id="Path-22" data-name="Path" d="M45.612,61.391,118.737,40.1,253.024,1a25.4,25.4,0,0,1,31.4,17.253l28.841,99.074a25.415,25.415,0,0,1-17.232,31.414L152.917,190.4l-13.661,3.967-13.869,4.057-13.661,3.987-11.1,3.211-39.388,11.47a25.387,25.387,0,0,1-31.4-17.253L1,100.765A25.387,25.387,0,0,1,18.227,69.373l1.033-.3.867-.257,18.39-5.36Z" transform="translate(190.522 257.516)" fill="#fff"/>
    <path id="Path-23" data-name="Path" d="M47.9,56.89l67.751-19.722L240.088.935a23.529,23.529,0,0,1,29.125,15.984l26.712,91.772a23.577,23.577,0,0,1-15.949,29.125L147.352,176.428,134.7,180.117l-12.877,3.752-12.656,3.7-10.291,2.947L56.759,203a23.522,23.522,0,0,1-29.125-15.984L.936,95.2a23.536,23.536,0,0,1,15.95-29.125l.957-.277.8-.229,22.683-6.8Z" transform="translate(199.221 264.603)" fill="#29d592"/>
    <path id="Path-24" data-name="Path" d="M118.962,9.14,6.061,41A4.757,4.757,0,0,1,.187,37.71,4.521,4.521,0,0,1,0,36.427a4.792,4.792,0,0,1,3.467-4.584L116.369,0a8.9,8.9,0,0,0-.062,4.771,9.077,9.077,0,0,0,2.656,4.369Z" transform="translate(228.873 366.27)" fill="#29d592"/>
    <path id="Path-25" data-name="Path" d="M115.96,137.159c-6.012.333-12.482-8.321-14.459-10.478a3.467,3.467,0,0,0-.742-.589l-5.374-4.348.9,6.837c1.435,3.294,9.015,10.478,14.417,18.723s.257,10.048-2.635,11.1-5.915-4.417-4.736,1.519-5.825,6.019-10.194,5.277-5.936-5.548-4.944-1.775-2.281,6.525-5.236,6.65c-2.24.111-6.546-2.913-8.488-4.369-.444,2.385-2.046,6.865-7.628,4.48-7.413-3.169-14.611-22.107-20.11-41.49S5.617,73.957.423,36.524v-.215Q.007,32.065,0,27.759A84.56,84.56,0,0,1,1.581,11.5a91.682,91.682,0,0,1,3-11.5L63.389,11.678c-.4.444-.8.888-1.207,1.352-13.765,15.984-5.721,36.254,4.75,51.135,10.624,15.145,22.849,30.11,36.823,42.3a110.635,110.635,0,0,1,11.47,11.574l-.763.423a45.331,45.331,0,0,0,2.774,4.688c4.154,5.728,4.764,13.668-1.276,14.008Z" transform="translate(230.752 297.014)" fill="#fff"/>
    <path id="Path-26" data-name="Path" d="M0,40.1,134.288,1a25.4,25.4,0,0,1,31.4,17.253l28.841,99.074A25.415,25.415,0,0,1,177.3,148.739L34.18,190.4" transform="translate(309.258 257.516)" fill="none" stroke="#404040" stroke-miterlimit="10" stroke-width="3"/>
    <path id="Path-27" data-name="Path" d="M100.6,142.166l-39.354,11.47a25.387,25.387,0,0,1-31.4-17.253L1,37.308A25.387,25.387,0,0,1,18.227,5.915l1.033-.3.867-.257L38.517,0" transform="translate(190.522 320.973)" fill="none" stroke="#404040" stroke-miterlimit="10" stroke-width="3"/>
    <path id="Path-28" data-name="Path" d="M.5.49H.475" transform="translate(329.281 451.394)" fill="none" stroke="#404040" stroke-miterlimit="10" stroke-width="3"/>
    <path id="Path-29" data-name="Path" d="M.5.49H.475" transform="translate(301.71 459.438)" fill="none" stroke="#404040" stroke-miterlimit="10" stroke-width="3"/>
    <path id="Path-30" data-name="Path" d="M25.837,149.9c1.935,10.554,10.728,21.99,20.055,29.909,2.711,2.3,8.7,5.1,11.955,2.476,7.018-5.659-4.979-14.979-8.287-18.723-4.015-4.549-7.26-9.882-8.467-15.894a1.727,1.727,0,0,1,.062-1.123,1.11,1.11,0,0,1,1.269-.4,3.1,3.1,0,0,1,1.179.777c3.8,3.467,7.191,7.3,10.631,11.1,2.434,2.711,8.765,6.075,11.872,2.621,6.74-7.5-12.337-24.964-17.219-29.25-13.959-12.2-26.206-27.17-36.829-42.3C1.587,74.207-6.457,53.937,7.308,37.953,14.492,29.631,25.13,26,34.63,21.081,49.956,13.176,53.111,0,53.111,0" transform="translate(283.851 272.05)" fill="none" stroke="#404040" stroke-miterlimit="10" stroke-width="3"/>
    <path id="Path-31" data-name="Path" d="M0,0S7.933,22.614,24.784,29.652a7.3,7.3,0,0,0,6.324-.187c2.08-1.165,3.779-3.467.86-8.086" transform="translate(300.784 432.675)" fill="none" stroke="#404040" stroke-miterlimit="10" stroke-width="3"/>
    <path id="Path-32" data-name="Path" d="M0,0C3.093,8.391,7.2,17.163,13.8,23.4c3.01,2.836,6.824,5.645,11.1,5.825,5.145.215,5.548-4.972,3.467-8.5a10.825,10.825,0,0,0-1.609-2.08" transform="translate(289.8 437.959)" fill="none" stroke="#404040" stroke-miterlimit="10" stroke-width="3"/>
    <path id="Path-33" data-name="Path" d="M74.672,244.846s-.374,9.015-7.788,5.832-14.632-22.114-20.11-41.5S5.479,154.329.4,116.806l.055.458v-.229A84.6,84.6,0,0,1,1.588,91.994C17.642,10.749,125.877,0,125.877,0" transform="translate(228.928 216.518)" fill="none" stroke="#404040" stroke-miterlimit="10" stroke-width="3"/>
    <path id="Path-34" data-name="Path" d="M48.839,52.351c-3,8.842-10.4,14.479-19.528,15.852-3.911.576-8.127,1.1-11.789-.693C14.839,66.2,12.2,63.141,13,59.931a14.251,14.251,0,0,1-3.544-.4,5.58,5.58,0,0,1-3.932-2.6,4.709,4.709,0,0,1,.929-4.813,10.4,10.4,0,0,1,4.438-2.594,11.617,11.617,0,0,1,1.241-.381,28.363,28.363,0,0,1-4.05-.257c-2.58-.333-5.471-1.435-6.241-3.9a5.125,5.125,0,0,1,1.248-4.792A9.875,9.875,0,0,1,7.5,37.567c.173-.042.319-.1.485-.146C4.93,37.379,1.8,36.769.45,33.87a5.721,5.721,0,0,1,1.144-6.186c2.7-3.037,6.754-3.467,10.575-3.759s8.467-.423,12.968-.506a6.414,6.414,0,0,0,6-8.169C29.381,9.01,28.639,2.2,32.335.536c5.513-2.5,9.313,4.306,10.894,8.488,4.833,12.815,10.215,29.791,5.61,43.327Z" transform="translate(466.327 335.749)" fill="#fff" stroke="#404040" stroke-width="3"/>
    <path id="Path-35" data-name="Path" d="M20.452,0A68.439,68.439,0,0,1,6.957,1.962a12.122,12.122,0,0,0-1.241.381A10.4,10.4,0,0,0,1.278,4.937,4.558,4.558,0,0,0,.349,9.75a5.406,5.406,0,0,0,3.932,2.6,14.251,14.251,0,0,0,3.544.4,35.047,35.047,0,0,0,7.247-.908c.4-.083,5.326-.652,5.707-.742" transform="translate(471.463 382.947)" fill="none" stroke="#404040" stroke-miterlimit="10" stroke-width="3"/>
    <path id="Path-36" data-name="Path" d="M6.3,0c-.166.042-.312.1-.485.146a9.875,9.875,0,0,0-4.41,2.621A5.125,5.125,0,0,0,.159,7.559c.8,2.469,3.7,3.571,6.241,3.9a28.362,28.362,0,0,0,4.05.257" transform="translate(467.963 373.19)" fill="none" stroke="#404040" stroke-miterlimit="10" stroke-width="3"/>
    <path id="Path-37" data-name="Path" d="M29.381,37h-.992l-16.116.361c-1.262,0-2.774.125-4.286.083C4.93,37.4,1.8,36.79.45,33.891a5.721,5.721,0,0,1,1.144-6.186c2.7-3.037,6.754-3.467,10.575-3.759s8.474-.409,12.975-.506a6.414,6.414,0,0,0,6.019-8.183C29.409,9.017,28.653,2.2,32.356.536c5.513-2.5,9.313,4.306,10.894,8.488C48.1,21.839,53.492,38.843,48.888,52.351c-3,8.842-10.4,14.493-19.521,15.852-3.9.583-8.134,1.11-11.789-.693-2.67-1.3-5.319-4.355-4.521-7.566" transform="translate(466.278 335.728)" fill="none" stroke="#404040" stroke-miterlimit="10" stroke-width="3"/>
  </g>
</svg>
